<svg width="70" height="70" viewBox="0 0 70 70" fill="none" xmlns="http://www.w3.org/2000/svg">
<path fill-rule="evenodd" clip-rule="evenodd" d="M35 70C54.33 70 70 54.33 70 35C70 15.67 54.33 0 35 0C15.67 0 0 15.67 0 35C0 54.33 15.67 70 35 70Z" fill="#F1F0F0"/>
<mask id="mask0" mask-type="alpha" maskUnits="userSpaceOnUse" x="0" y="0" width="70" height="70">
<path fill-rule="evenodd" clip-rule="evenodd" d="M35 70C54.33 70 70 54.33 70 35C70 15.67 54.33 0 35 0C15.67 0 0 15.67 0 35C0 54.33 15.67 70 35 70Z" fill="white"/>
</mask>
<g mask="url(#mask0)">
<path d="M15.5626 66.0781C15.5626 59.9919 20.4965 55.058 26.5827 55.058H43.7134C49.7997 55.058 54.7335 59.9919 54.7335 66.0781V84.3516H15.5626V66.0781Z" fill="#F15165" stroke="#363A50" stroke-width="1.25944"/>
<mask id="mask1" mask-type="alpha" maskUnits="userSpaceOnUse" x="14" y="54" width="42" height="31">
<path d="M15.5626 66.0781C15.5626 59.9919 20.4965 55.058 26.5827 55.058H43.7134C49.7997 55.058 54.7335 59.9919 54.7335 66.0781V84.3516H15.5626V66.0781Z" fill="white" stroke="white" stroke-width="1.25944"/>
</mask>
<g mask="url(#mask1)">
<path d="M15.5626 66.0781C15.5626 59.9919 20.4965 55.058 26.5827 55.058H43.7134C49.7997 55.058 54.7335 59.9919 54.7335 66.0781V84.3516H15.5626V66.0781Z" fill="#363A50" stroke="#363A50" stroke-width="1.25944"/>
<path fill-rule="evenodd" clip-rule="evenodd" d="M31.9243 56.6636L22.4022 65.6953C22.1784 65.9076 22.0516 66.2026 22.0516 66.5112V82.1319H47.6253V65.8774C47.6253 65.5838 47.5105 65.3019 47.3054 65.0918L38.7983 56.3784L31.9243 56.6636Z" fill="#E72F47"/>
<mask id="mask2" mask-type="alpha" maskUnits="userSpaceOnUse" x="22" y="56" width="26" height="27">
<path fill-rule="evenodd" clip-rule="evenodd" d="M31.9243 56.6636L22.4022 65.6953C22.1784 65.9076 22.0516 66.2026 22.0516 66.5112V82.1319H47.6253V65.8774C47.6253 65.5838 47.5105 65.3019 47.3054 65.0918L38.7983 56.3784L31.9243 56.6636Z" fill="white"/>
</mask>
<g mask="url(#mask2)">
<path fill-rule="evenodd" clip-rule="evenodd" d="M31.9243 56.6636L22.4022 65.6953C22.1784 65.9076 22.0516 66.2026 22.0516 66.5112V82.1319H47.6253V65.8774C47.6253 65.5838 47.5105 65.3019 47.3054 65.0918L38.7983 56.3784L31.9243 56.6636Z" fill="#F7334C"/>
<path fill-rule="evenodd" clip-rule="evenodd" d="M35.1038 58.271C35.1038 58.271 41.4759 65.018 42.8503 68.6414C44.2247 72.2647 37.7276 82.0104 37.7276 82.0104L56.7191 82.1353L60.4674 61.8944C60.4674 61.8944 52.3461 52.7734 51.5964 52.7734C50.8467 52.7734 44.2247 51.524 44.2247 51.524L35.1038 58.271Z" fill="black" fill-opacity="0.1"/>
</g>
<path fill-rule="evenodd" clip-rule="evenodd" d="M39.5768 55.0893C39.5768 55.0893 58.9432 55.5208 54.1953 81.7024L55.9445 81.5209L56.5693 64.0287L54.4452 54.6579L49.0726 52.4089L39.5768 55.0893Z" fill="black" fill-opacity="0.1"/>
<path fill-rule="evenodd" clip-rule="evenodd" d="M20.7352 80.4847L21.9846 65.6163L22.1096 80.1206L20.7352 80.4847Z" fill="black" fill-opacity="0.2"/>
</g>
<path d="M54.8458 36.4728C54.8458 38.7356 53.014 40.5682 50.7563 40.5682C48.4986 40.5682 46.6667 38.7356 46.6667 36.4728C46.6667 34.2101 48.4986 32.3774 50.7563 32.3774C53.014 32.3774 54.8458 34.2101 54.8458 36.4728Z" fill="#F9CCB6" stroke="#363A50" stroke-width="1.5743"/>
<path fill-rule="evenodd" clip-rule="evenodd" d="M51.3771 38.8371C52.3432 38.8371 53.1263 38.0539 53.1263 37.0878C53.1263 36.1218 52.3432 35.3386 51.3771 35.3386C50.411 35.3386 49.6279 36.1218 49.6279 37.0878C49.6279 38.0539 50.411 38.8371 51.3771 38.8371Z" fill="black" fill-opacity="0.1"/>
<path d="M23.225 36.4728C23.225 38.7356 21.3932 40.5682 19.1355 40.5682C16.8778 40.5682 15.0459 38.7356 15.0459 36.4728C15.0459 34.2101 16.8778 32.3774 19.1355 32.3774C21.3932 32.3774 23.225 34.2101 23.225 36.4728Z" fill="#F9CCB6" stroke="#363A50" stroke-width="1.5743"/>
<path fill-rule="evenodd" clip-rule="evenodd" d="M18.132 38.5872C19.0981 38.5872 19.8813 37.804 19.8813 36.8379C19.8813 35.8719 19.0981 35.0887 18.132 35.0887C17.166 35.0887 16.3828 35.8719 16.3828 36.8379C16.3828 37.804 17.166 38.5872 18.132 38.5872Z" fill="black" fill-opacity="0.1"/>
<rect x="31.5191" y="48.0373" width="7.84226" height="9.97534" rx="3.92113" fill="#F9CCB6" stroke="#363A50" stroke-width="1.5743"/>
<mask id="mask3" mask-type="alpha" maskUnits="userSpaceOnUse" x="30" y="47" width="11" height="12">
<rect x="31.5191" y="48.0373" width="7.84226" height="9.97534" rx="3.92113" fill="white" stroke="white" stroke-width="1.5743"/>
</mask>
<g mask="url(#mask3)">
<rect x="30.5073" y="45.4504" width="9.75339" height="13.0726" rx="4.8767" fill="#F9CCB6"/>
<path fill-rule="evenodd" clip-rule="evenodd" d="M33.2735 50.3241C33.2735 50.3241 31.9243 54.5978 35.4096 56.8472C38.895 59.0965 34.7351 58.984 34.7351 58.984L30.1254 55.1602L30.013 50.9989L33.2735 50.3241Z" fill="#F8CCB8"/>
<path fill-rule="evenodd" clip-rule="evenodd" d="M37.2117 51.0808C37.2117 51.0808 38.836 57.8278 33.0886 56.3285L34.0881 57.9528L38.2113 56.9532L40.3353 53.4548L39.3358 51.0808H37.2117Z" fill="black" fill-opacity="0.05"/>
</g>
<path fill-rule="evenodd" clip-rule="evenodd" d="M18.2261 30.5187C18.7625 21.653 26.1088 14.7376 34.9907 14.7376C43.8726 14.7376 51.219 21.653 51.7553 30.5187L51.9588 33.8824C52.5501 43.6565 44.7827 51.908 34.9907 51.908C25.1987 51.908 17.4314 43.6565 18.0226 33.8824L18.2261 30.5187Z" fill="#F9CCB6"/>
<mask id="mask4" mask-type="alpha" maskUnits="userSpaceOnUse" x="17" y="14" width="35" height="38">
<path fill-rule="evenodd" clip-rule="evenodd" d="M18.2261 30.5187C18.7625 21.653 26.1088 14.7376 34.9907 14.7376C43.8726 14.7376 51.219 21.653 51.7553 30.5187L51.9588 33.8824C52.5501 43.6565 44.7827 51.908 34.9907 51.908C25.1987 51.908 17.4314 43.6565 18.0226 33.8824L18.2261 30.5187Z" fill="white"/>
</mask>
<g mask="url(#mask4)">
<path d="M37.5729 50.8832H37.5725H37.5705H37.5685H37.5664H37.5644H37.5622H37.5601H37.5579H37.5557H37.5534H37.5511H37.5487H37.5464H37.544H37.5415H37.539H37.5365H37.534H37.5314H37.5288H37.5261H37.5234H37.5207H37.5179H37.5151H37.5123H37.5094H37.5065H37.5036H37.5006H37.4976H37.4945H37.4914H37.4883H37.4852H37.482H37.4788H37.4755H37.4722H37.4689H37.4655H37.4621H37.4587H37.4552H37.4517H37.4482H37.4446H37.441H37.4374H37.4337H37.43H37.4263H37.4225H37.4187H37.4149H37.411H37.4071H37.4031H37.3991H37.3951H37.3911H37.387H37.3829H37.3787H37.3746H37.3704H37.3661H37.3618H37.3575H37.3532H37.3488H37.3444H37.3399H37.3354H37.3309H37.3264H37.3218H37.3172H37.3125H37.3078H37.3031H37.2984H37.2936H37.2888H37.284H37.2791H37.2742H37.2692H37.2643H37.2592H37.2542H37.2491H37.244H37.2389H37.2337H37.2285H37.2233H37.218H37.2127H37.2074H37.202H37.1966H37.1912H37.1857H37.1803H37.1747H37.1692H37.1636H37.158H37.1523H37.1466H37.1409H37.1352H37.1294H37.1236H37.1178H37.1119H37.106H37.1001H37.0941H37.0881H37.0821H37.076H37.0699H37.0638H37.0577H37.0515H37.0453H37.039H37.0327H37.0264H37.0201H37.0137H37.0073H37.0009H36.9945H36.988H36.9815H36.9749H36.9683H36.9617H36.9551H36.9484H36.9417H36.935H36.9282H36.9214H36.9146H36.9077H36.9009H36.894H36.887H36.88H36.873H36.866H36.859H36.8519H36.8447H36.8376H36.8304H36.8232H36.816H36.8087H36.8014H36.7941H36.7867H36.7794H36.7719H36.7645H36.757H36.7495H36.742H36.7344H36.7269H36.7192H36.7116H36.7039H36.6962H36.6885H36.6807H36.6729H36.6651H36.6573H36.6494H36.6415H36.6336H36.6256H36.6176H36.6096H36.6016H36.5935H36.5854H36.5773H36.5691H36.5609H36.5527H36.5445H36.5362H36.5279H36.5196H36.5113H36.5029H36.4945H36.486H36.4776H36.4691H36.4606H36.452H36.4435H36.4349H36.4262H36.4176H36.4089H36.4002H36.3915H36.3827H36.3739H36.3651H36.3563H36.3474H36.3385H36.3296H36.3206H36.3117H36.3027H36.2936H36.2846H36.2755H36.2664H36.2572H36.2481H36.2389H36.2297H36.2204H36.2112H36.2019H36.1926H36.1832H36.1739H36.1645H36.155H36.1456H36.1361H36.1266H36.1171H36.1075H36.098H36.0884H36.0787H36.0691H36.0594H36.0497H36.04H36.0302H36.0204H36.0106H36.0008H35.9909H35.981H35.9711H35.9612H35.9512H35.9413H35.9312H35.9212H35.9112H35.9011H35.891H35.8808H35.8707H35.8605H35.8503H35.8401H35.8298H35.8195H35.8092H35.7989H35.7885H35.7782H35.7678H35.7573H35.7469H35.7364H35.7259H35.7154H35.7048H35.6943H35.6837H35.6731H35.6624H35.6518H35.6411H35.6303H35.6196H35.6089H35.5981H35.5873H35.5764H35.5656H35.5547H35.5438H35.5329H35.5219H35.511H35.5H35.4889H35.4779H35.4668H35.4558H35.4446H35.4335H35.4224H35.4112H35.4H35.3888H35.3775H35.3662H35.3549H35.3436H35.3323H35.3209H35.3096H35.2982H35.2867H35.2753H35.2638H35.2523H35.2408H35.2293H35.2177H35.2061H35.1945H35.1829H35.1712H35.1596H35.1479H35.1362H35.1244H35.1127H35.1009H35.0891H35.0773H35.0654H35.0536H35.0417H35.0298H35.0179H35.0059H34.9939H34.982H34.9699H34.9579H34.9459H34.9338H34.9217H34.9096H34.8974H34.8853H34.8731H34.8609H34.8487H34.8364H34.8242H34.8119H34.7996H34.7872H34.7749H34.7625H34.7501H34.7377H34.7253H34.7129H34.7004H34.6879H34.6754H34.6629H34.6503H34.6378H34.6252H34.6126H34.5999H34.5873H34.5746H34.5619H34.5492H34.5365H34.5237H34.511H34.4982H34.4854H34.4726H34.4597H34.4469H34.434H34.4211H34.4082H34.3952H34.3823H34.3693H34.3563H34.3433H34.3302H34.3172H34.3041H34.291H34.2779H34.2648H34.2516H34.2385H34.2253H34.2121H34.1989H34.1856H34.1724H34.1591H34.1458H34.1325H34.1191H34.1058H34.0924H34.079H34.0656H34.0522H34.0388H34.0253H34.0118H33.9983H33.9848H33.9713H33.9578H33.9442H33.9306H33.917H33.9034H33.8898H33.8761H33.8624H33.8487H33.835H33.8213H33.8076H33.7938H33.78H33.7663H33.7524H33.7386H33.7248C25.2455 50.8832 18.4622 43.8355 18.7901 35.3631C19.0647 28.2683 24.294 22.3464 31.3004 21.1962L33.3745 20.8556C42.6763 19.3285 51.1028 26.5682 50.9943 35.994C50.9069 43.5854 45.1166 49.9602 37.5729 50.8832Z" fill="#F9CCB6" stroke="#363A50" stroke-width="1.5743"/>
<path fill-rule="evenodd" clip-rule="evenodd" d="M29.1702 24.3452C39.205 24.3452 47.3398 21.7714 47.3398 18.5964C47.3398 15.4214 39.205 12.8476 29.1702 12.8476C19.1354 12.8476 11.0005 15.4214 11.0005 18.5964C11.0005 21.7714 19.1354 24.3452 29.1702 24.3452Z" fill="#F8C4AC"/>
<path fill-rule="evenodd" clip-rule="evenodd" d="M48.3107 31.3645C48.3107 31.3645 49.5602 54.8541 22.4473 47.8572L35.1916 51.8554L49.935 49.6064L52.059 39.9857V32.8639L48.3107 31.3645Z" fill="black" fill-opacity="0.05"/>
</g>
<path fill-rule="evenodd" clip-rule="evenodd" d="M44.0298 35.4383C42.5579 35.6715 41.0568 33.9165 41.0568 33.9165C41.0568 33.9165 41.9421 31.7836 43.414 31.5505C44.8859 31.3173 46.387 33.0723 46.387 33.0723C46.387 33.0723 45.5017 35.2052 44.0298 35.4383Z" fill="white"/>
<path fill-rule="evenodd" clip-rule="evenodd" d="M45.4968 36.1261C45.4968 36.1261 43.8725 37.8753 40.9988 36.376L45.4968 36.1261Z" fill="black" fill-opacity="0.03"/>
<path fill-rule="evenodd" clip-rule="evenodd" d="M23.5066 36.1261C23.5066 36.1261 25.1309 37.8753 28.0046 36.376L23.5066 36.1261Z" fill="black" fill-opacity="0.03"/>
<path d="M45.2412 27.4692C44.4583 26.1132 42.2988 25.8944 40.4178 26.9804" stroke="#363A50" stroke-width="1.10201" stroke-linecap="round"/>
<path d="M24.6865 27.4692C25.4693 26.1132 27.6289 25.8944 29.5099 26.9804" stroke="#363A50" stroke-width="1.10201" stroke-linecap="round"/>
<path d="M48.9886 31.2237L48.9462 31.7587L49.4287 31.9937L51.5381 33.0208L52.8746 33.6716L52.6617 32.2003L50.5638 17.7053L50.5154 17.3714L50.2403 17.1762L49.7847 17.8181C50.2403 17.1762 50.2402 17.1761 50.2401 17.176L50.2395 17.1756L50.2377 17.1743L50.2307 17.1693L50.2038 17.1503L50.1002 17.0775C50.0097 17.014 49.8769 16.9213 49.7071 16.8039C49.3675 16.569 48.8793 16.2347 48.2834 15.8362C47.0924 15.0398 45.4672 13.984 43.735 12.9506C42.0068 11.9195 40.1537 10.8994 38.5109 10.1825C37.6901 9.82437 36.9025 9.53326 36.197 9.35651C35.5106 9.18458 34.8142 9.09753 34.218 9.23319C32.4743 9.62996 29.6044 10.7014 26.7167 12.2761C23.8342 13.8481 20.8437 15.9702 18.9356 18.5102L18.8013 18.689L18.781 18.9116L17.6502 31.3366L17.5616 32.311L18.5323 32.189L20.9319 31.8873L21.4743 31.8191L21.5998 31.287L23.7791 22.0481C23.8454 22.0603 23.9158 22.0733 23.99 22.0869C24.5944 22.1976 25.4548 22.3502 26.4804 22.5184C28.5297 22.8546 31.2476 23.2543 33.9057 23.5051C36.5449 23.7541 39.1937 23.8635 41.073 23.5903C41.9887 23.4572 42.8673 23.2153 43.4483 22.7344C43.7337 22.4982 43.9656 22.1886 44.0717 21.8008C44.6826 22.0241 45.4875 22.4108 46.2685 23.0622C47.7961 24.3364 49.3463 26.7161 48.9886 31.2237Z" fill="#886653" stroke="#363A4F" stroke-width="1.5743"/>
<mask id="mask5" mask-type="alpha" maskUnits="userSpaceOnUse" x="16" y="8" width="38" height="28">
<path d="M48.9886 31.2237L48.9462 31.7587L49.4287 31.9937L51.5381 33.0208L52.8746 33.6716L52.6617 32.2003L50.5638 17.7053L50.5154 17.3714L50.2403 17.1762L49.7847 17.8181C50.2403 17.1762 50.2402 17.1761 50.2401 17.176L50.2395 17.1756L50.2377 17.1743L50.2307 17.1693L50.2038 17.1503L50.1002 17.0775C50.0097 17.014 49.8769 16.9213 49.7071 16.8039C49.3675 16.569 48.8793 16.2347 48.2834 15.8362C47.0924 15.0398 45.4672 13.984 43.735 12.9506C42.0068 11.9195 40.1537 10.8994 38.5109 10.1825C37.6901 9.82437 36.9025 9.53326 36.197 9.35651C35.5106 9.18458 34.8142 9.09753 34.218 9.23319C32.4743 9.62996 29.6044 10.7014 26.7167 12.2761C23.8342 13.8481 20.8437 15.9702 18.9356 18.5102L18.8013 18.689L18.781 18.9116L17.6502 31.3366L17.5616 32.311L18.5323 32.189L20.9319 31.8873L21.4743 31.8191L21.5998 31.287L23.7791 22.0481C23.8454 22.0603 23.9158 22.0733 23.99 22.0869C24.5944 22.1976 25.4548 22.3502 26.4804 22.5184C28.5297 22.8546 31.2476 23.2543 33.9057 23.5051C36.5449 23.7541 39.1937 23.8635 41.073 23.5903C41.9887 23.4572 42.8673 23.2153 43.4483 22.7344C43.7337 22.4982 43.9656 22.1886 44.0717 21.8008C44.6826 22.0241 45.4875 22.4108 46.2685 23.0622C47.7961 24.3364 49.3463 26.7161 48.9886 31.2237Z" fill="white" stroke="white" stroke-width="1.5743"/>
</mask>
<g mask="url(#mask5)">
<path fill-rule="evenodd" clip-rule="evenodd" d="M42.4312 18.0335C42.4312 18.0335 51.2475 21.8252 50.4609 31.7361L52.6633 32.8085L52.8206 15.3258C52.8206 15.3258 50.7755 11.0733 47.3147 11.8608C43.8538 12.6483 42.1301 -3.41688 18.2185 15.1683C18.2185 15.1683 15.9282 19.8712 21.1195 21.2887L17.7398 31.8635L20.2452 31.5485L22.701 21.4893C22.701 21.4893 39.2849 22.916 42.4312 18.0335Z" fill="#886653"/>
<path opacity="0.6" d="M31.1439 32.7786C33.0667 31.8407 33.1435 28.0419 31.3154 24.2936V24.2936C29.4872 20.5454 26.4464 18.2671 24.5236 19.2049" stroke="#664C3C" stroke-width="1.10201" stroke-linecap="round"/>
<path opacity="0.6" d="M36.6498 30.2585C38.5727 29.3207 38.6494 25.5218 36.8213 21.7736V21.7736C34.9932 18.0253 31.9524 15.7471 30.0295 16.6849" stroke="#664C3C" stroke-width="1.10201" stroke-linecap="round"/>
<path opacity="0.6" d="M41.3692 27.1085C43.2921 26.1706 43.3689 22.3718 41.5407 18.6236V18.6236C39.7126 14.8753 36.6718 12.597 34.7489 13.5349" stroke="#664C3C" stroke-width="1.10201" stroke-linecap="round"/>
</g>
<path fill-rule="evenodd" clip-rule="evenodd" d="M43.7216 34.2678C44.2429 34.2678 44.6655 33.8447 44.6655 33.3228C44.6655 32.8009 44.2429 32.3778 43.7216 32.3778C43.2003 32.3778 42.7777 32.8009 42.7777 33.3228C42.7777 33.8447 43.2003 34.2678 43.7216 34.2678Z" fill="#363A50"/>
<path d="M33.0923 40.1175C33.0923 40.1175 33.9855 41.5524 35.0872 41.5524C36.1889 41.5524 37.082 40.1175 37.082 40.1175" stroke="#363A50" stroke-width="1.10201" stroke-linecap="round"/>
<path d="M16.922 35.8829C17.593 35.4797 18.4635 35.6962 18.8662 36.3665V36.3665C19.269 37.0367 19.0514 37.9069 18.3804 38.3101" stroke="#363A50" stroke-width="0.648148" stroke-linecap="round"/>
<path d="M51.0456 35.7905C51.6364 35.2769 52.5313 35.339 53.0443 35.9291V35.9291C53.5573 36.5192 53.4942 37.414 52.9033 37.9276" stroke="#363A50" stroke-width="0.648148" stroke-linecap="round"/>
<path d="M32.8612 44.88C32.8612 45.7499 34.5412 45.4054 36.6135 45.4054" stroke="#363A50" stroke-width="1.10201" stroke-linecap="round"/>
<path fill-rule="evenodd" clip-rule="evenodd" d="M33.2361 46.7542H35.735L34.4855 47.9943L33.2361 46.7542Z" fill="black" fill-opacity="0.05"/>
<path fill-rule="evenodd" clip-rule="evenodd" d="M26.2966 35.4383C27.7685 35.6715 29.2696 33.9165 29.2696 33.9165C29.2696 33.9165 28.3843 31.7836 26.9124 31.5505C25.4405 31.3173 23.9394 33.0723 23.9394 33.0723C23.9394 33.0723 24.8247 35.2052 26.2966 35.4383Z" fill="white"/>
<path fill-rule="evenodd" clip-rule="evenodd" d="M26.5745 34.2678C27.0958 34.2678 27.5184 33.8447 27.5184 33.3228C27.5184 32.8009 27.0958 32.3778 26.5745 32.3778C26.0532 32.3778 25.6306 32.8009 25.6306 33.3228C25.6306 33.8447 26.0532 34.2678 26.5745 34.2678Z" fill="#363A50"/>
<path fill-rule="evenodd" clip-rule="evenodd" d="M18.5314 13.5418C18.7857 11.5925 20.1626 9.97566 22.057 9.45081C26.0524 8.3439 32.7857 6.59259 35.3936 6.59259C37.7502 6.59259 44.0036 8.31237 47.7887 9.42063C49.6489 9.96529 50.9902 11.5666 51.2409 13.4886L52.5877 23.8123C52.976 26.7888 50.6586 29.4281 47.6569 29.4281H22.1223C19.1206 29.4281 16.8033 26.7888 17.1916 23.8123L18.5314 13.5418Z" fill="white"/>
<mask id="mask6" mask-type="alpha" maskUnits="userSpaceOnUse" x="17" y="6" width="36" height="24">
<path fill-rule="evenodd" clip-rule="evenodd" d="M18.5314 13.5418C18.7857 11.5925 20.1626 9.97566 22.057 9.45081C26.0524 8.3439 32.7857 6.59259 35.3936 6.59259C37.7502 6.59259 44.0036 8.31237 47.7887 9.42063C49.6489 9.96529 50.9902 11.5666 51.2409 13.4886L52.5877 23.8123C52.976 26.7888 50.6586 29.4281 47.6569 29.4281H22.1223C19.1206 29.4281 16.8033 26.7888 17.1916 23.8123L18.5314 13.5418Z" fill="white"/>
</mask>
<g mask="url(#mask6)">
<path d="M19.0889 13.6145C19.3146 11.8844 20.5352 10.4559 22.2072 9.99265C24.2014 9.44015 26.8744 8.72809 29.3714 8.15459C31.8909 7.57594 34.164 7.15484 35.3936 7.15484C36.4926 7.15484 38.5785 7.56568 40.9223 8.13725C43.2413 8.7028 45.7416 9.40711 47.6307 9.96022C49.2719 10.4407 50.4608 11.8551 50.6834 13.5613L52.0302 23.885C52.3746 26.5249 50.3192 28.8658 47.6569 28.8658H22.1223C19.46 28.8658 17.4047 26.5249 17.7491 23.885L19.0889 13.6145Z" fill="white" stroke="#363A50" stroke-width="1.1245"/>
<path fill-rule="evenodd" clip-rule="evenodd" d="M42.4584 5.93712C42.4584 5.93712 51.0866 16.1927 48.347 22.5383C35.5616 17.2391 18.4257 25.219 18.4257 25.219L11.3075 33.2507L60.9567 29.6043L53.1762 8.82172L42.4584 5.93712Z" fill="black" fill-opacity="0.1"/>
</g>
<path fill-rule="evenodd" clip-rule="evenodd" d="M17.3526 26.9554C17.3526 26.9554 30.698 18.2859 52.2171 27.205L47.9175 32.0073C47.9175 32.0073 39.3014 29.9829 34.5436 29.9829C30.1964 29.9829 21.5019 31.1075 21.5019 31.1075L17.3526 26.9554Z" fill="#A29D9D"/>
<mask id="mask7" mask-type="alpha" maskUnits="userSpaceOnUse" x="17" y="23" width="36" height="10">
<path fill-rule="evenodd" clip-rule="evenodd" d="M17.3526 26.9554C17.3526 26.9554 30.698 18.2859 52.2171 27.205L47.9175 32.0073C47.9175 32.0073 39.3014 29.9829 34.5436 29.9829C30.1964 29.9829 21.5019 31.1075 21.5019 31.1075L17.3526 26.9554Z" fill="white"/>
</mask>
<g mask="url(#mask7)">
<path d="M18.2689 27.0769C18.6612 26.8664 19.2392 26.5778 19.9936 26.2578C21.5465 25.599 23.846 24.8074 26.8119 24.2894C32.6015 23.2782 40.9492 23.3059 51.2656 27.4248L47.72 31.385C47.7014 31.3808 47.682 31.3764 47.6619 31.3719C47.4154 31.3161 47.0583 31.2366 46.6152 31.1413C45.7291 30.9506 44.4977 30.6964 43.1165 30.4421C40.3669 29.9358 36.9788 29.4206 34.5436 29.4206C32.3376 29.4206 29.0508 29.7049 26.3347 29.9859C24.9725 30.1269 23.7468 30.2678 22.8617 30.3735C22.419 30.4264 22.0614 30.4704 21.8143 30.5013C21.7749 30.5062 21.7383 30.5108 21.7047 30.515L18.2689 27.0769Z" fill="#F7334C" stroke="#363A50" stroke-width="1.1245" stroke-linecap="round"/>
<path fill-rule="evenodd" clip-rule="evenodd" d="M39.8189 23.8391C39.8189 23.8391 35.4459 27.2175 20.4526 30.466C5.45928 33.7146 48.565 32.5901 48.565 32.5901L53.4379 26.2179L39.8189 23.8391Z" fill="black" fill-opacity="0.05"/>
</g>
<path fill-rule="evenodd" clip-rule="evenodd" d="M33.4478 39.8554C33.4478 39.8554 36.6963 41.3547 35.072 34.4828L37.0711 39.6055L35.197 41.4797L33.4478 39.8554Z" fill="black" fill-opacity="0.05"/>
<path fill-rule="evenodd" clip-rule="evenodd" d="M45.099 53.8813C44.2377 53.7439 43.3767 54.1137 42.887 54.8356C41.1923 57.3338 37.2349 63.1748 35.2448 66.1729C31.4687 71.8619 22.8219 82.2666 22.8219 82.2666L31.1779 82.1545C31.1779 82.1545 37.0728 74.0124 39.7129 69.8912C41.6355 66.8902 45.4965 61.0651 47.8382 57.5431C48.7458 56.1781 47.9351 54.3337 46.3163 54.0755L45.099 53.8813Z" fill="#32343E"/>
<rect x="36.4891" y="63.5701" width="6.97065" height="9.4472" rx="1.1245" transform="rotate(36 36.4891 63.5701)" fill="#464646" stroke="#393A42" stroke-width="1.3494"/>
<path fill-rule="evenodd" clip-rule="evenodd" d="M37.358 64.5182L38.7324 68.3915L36.3585 74.3888L41.7311 67.7667L37.358 64.5182Z" fill="black" fill-opacity="0.1"/>
</g>
</svg>
