<svg width="25" height="25" viewBox="0 0 25 25" fill="none" xmlns="http://www.w3.org/2000/svg">
<path fill-rule="evenodd" clip-rule="evenodd" d="M12.5 6C10.735 6 10.5135 6.0075 9.82 6.039C9.128 6.0705 8.6555 6.1805 8.242 6.341C7.80836 6.50432 7.41556 6.76027 7.091 7.091C6.76021 7.41571 6.50426 7.80868 6.341 8.2425C6.1805 8.6555 6.071 9.128 6.039 9.82C6.0075 10.5135 6 10.735 6 12.5C6 14.265 6.0075 14.4865 6.039 15.18C6.0705 15.872 6.1805 16.3445 6.341 16.7575C6.5075 17.185 6.7295 17.5475 7.091 17.909C7.41556 18.2397 7.80836 18.4957 8.242 18.659C8.6555 18.819 9.128 18.929 9.82 18.961C10.5135 18.9925 10.735 19 12.5 19C14.265 19 14.4865 18.9925 15.18 18.961C15.872 18.9295 16.3445 18.8195 16.7575 18.659C17.1913 18.4958 17.5843 18.2398 17.909 17.909C18.2398 17.5843 18.4957 17.1913 18.659 16.7575C18.819 16.3445 18.929 15.872 18.961 15.18C18.9925 14.4865 19 14.265 19 12.5C19 10.735 18.9925 10.5135 18.961 9.82C18.9295 9.128 18.8195 8.6555 18.6585 8.2425C18.4954 7.80872 18.2396 7.41575 17.909 7.091C17.5843 6.7602 17.1913 6.50424 16.7575 6.341C16.3445 6.181 15.872 6.071 15.18 6.039C14.4865 6.0075 14.265 6 12.5 6ZM12.5 7.171C14.2355 7.171 14.441 7.178 15.1265 7.209C15.76 7.238 16.1045 7.344 16.3335 7.433C16.637 7.551 16.8535 7.6915 17.081 7.919C17.3085 8.1465 17.449 8.363 17.567 8.6665C17.656 8.8955 17.762 9.2395 17.791 9.8735C17.822 10.5585 17.829 10.7645 17.829 12.5C17.829 14.2355 17.822 14.441 17.791 15.1265C17.762 15.7605 17.656 16.1045 17.567 16.3335C17.4629 16.6158 17.2968 16.8713 17.081 17.081C16.8713 17.2968 16.6159 17.4629 16.3335 17.567C16.1045 17.656 15.76 17.762 15.1265 17.791C14.4415 17.822 14.2355 17.829 12.5 17.829C10.7645 17.829 10.5585 17.822 9.8735 17.791C9.2395 17.762 8.8955 17.656 8.6665 17.567C8.38415 17.4629 8.12872 17.2968 7.919 17.081C7.70322 16.8712 7.53715 16.6158 7.433 16.3335C7.344 16.1045 7.238 15.7605 7.209 15.1265C7.178 14.4415 7.171 14.2355 7.171 12.5C7.171 10.7645 7.178 10.559 7.209 9.8735C7.238 9.2395 7.344 8.8955 7.433 8.6665C7.551 8.363 7.6915 8.1465 7.919 7.919C8.12873 7.70319 8.38415 7.53712 8.6665 7.433C8.8955 7.344 9.2395 7.238 9.8735 7.209C10.5585 7.178 10.7645 7.171 12.5 7.171" fill="#2B2835"/>
<path fill-rule="evenodd" clip-rule="evenodd" d="M12.5 9C11.5717 9 10.6815 9.36875 10.0251 10.0251C9.36875 10.6815 9 11.5717 9 12.5C9 13.4283 9.36875 14.3185 10.0251 14.9749C10.6815 15.6313 11.5717 16 12.5 16C13.4283 16 14.3185 15.6313 14.9749 14.9749C15.6313 14.3185 16 13.4283 16 12.5C16 11.5717 15.6313 10.6815 14.9749 10.0251C14.3185 9.36875 13.4283 9 12.5 9ZM12.5 14.75C11.9033 14.75 11.331 14.5129 10.909 14.091C10.4871 13.669 10.25 13.0967 10.25 12.5C10.25 11.9033 10.4871 11.331 10.909 10.909C11.331 10.4871 11.9033 10.25 12.5 10.25C13.0967 10.25 13.669 10.4871 14.091 10.909C14.5129 11.331 14.75 11.9033 14.75 12.5C14.75 13.0967 14.5129 13.669 14.091 14.091C13.669 14.5129 13.0967 14.75 12.5 14.75ZM16.85 9.05C16.85 9.15506 16.8293 9.25909 16.7891 9.35615C16.7489 9.45321 16.69 9.5414 16.6157 9.61569C16.5414 9.68997 16.4532 9.7489 16.3561 9.7891C16.2591 9.82931 16.1551 9.85 16.05 9.85C15.9449 9.85 15.8409 9.82931 15.7439 9.7891C15.6468 9.7489 15.5586 9.68997 15.4843 9.61569C15.41 9.5414 15.3511 9.45321 15.3109 9.35615C15.2707 9.25909 15.25 9.15506 15.25 9.05C15.25 8.83783 15.3343 8.63434 15.4843 8.48431C15.6343 8.33429 15.8378 8.25 16.05 8.25C16.2622 8.25 16.4657 8.33429 16.6157 8.48431C16.7657 8.63434 16.85 8.83783 16.85 9.05Z" fill="#2B2835"/>
</svg>
